<?xml version="1.0" encoding="UTF-8"?>
<svg version="1.1" xmlns="http://www.w3.org/2000/svg" width="512" height="512">
<path d="M0 0 C0.80196304 -0.00701431 1.60392609 -0.01402863 2.43019104 -0.02125549 C5.01211184 -0.03870902 7.59380358 -0.04510996 10.17578125 -0.046875 C11.05576782 -0.04754974 11.93575439 -0.04822449 12.84240723 -0.04891968 C25.61576014 -0.03332251 37.99656904 0.28876795 50.48828125 3.203125 C51.27460938 3.38004883 52.0609375 3.55697266 52.87109375 3.73925781 C64.07551171 6.31360622 74.89125723 9.75013409 85.48828125 14.203125 C86.16036621 14.48494629 86.83245117 14.76676758 87.52490234 15.05712891 C104.91257412 22.48905565 120.4874928 32.52751406 134.48828125 45.203125 C135.78958984 46.32460937 135.78958984 46.32460937 137.1171875 47.46875 C153.25665524 61.51185495 165.70583829 78.24285167 175.48828125 97.203125 C175.9675708 98.1307666 175.9675708 98.1307666 176.45654297 99.07714844 C196.71076627 138.9079838 198.90495815 185.33411493 185.36376953 227.58886719 C168.52665804 277.86543994 134.6574911 319.04647456 97.73828125 356.078125 C96.99461807 356.82580643 96.99461807 356.82580643 96.2359314 357.58859253 C90.50016091 363.34785326 84.68056439 368.93429613 78.48828125 374.203125 C77.30833817 375.23650537 76.12993082 376.27164211 74.953125 377.30859375 C61.9554857 388.68860299 48.51005399 399.42360037 34.58691406 409.65039062 C32.37050007 411.29026883 30.17627506 412.95765673 27.98046875 414.625 C26.48396035 415.73557183 24.98658689 416.84497907 23.48828125 417.953125 C22.80652832 418.4790625 22.12477539 419.005 21.42236328 419.546875 C17.55551523 422.36119141 14.40828154 424.11467472 9.53320312 423.75439453 C5.31822523 422.61812184 2.12264403 419.92434877 -1.26171875 417.265625 C-2.05030273 416.67023926 -2.83888672 416.07485352 -3.65136719 415.46142578 C-5.22930896 414.26782139 -6.80141617 413.06645905 -8.3671875 411.85693359 C-10.18216816 410.45726613 -12.00969467 409.08122384 -13.85546875 407.72265625 C-29.21223993 396.39084526 -43.89521764 384.31495299 -58.00952148 371.4699707 C-59.57661778 370.05027229 -61.15061703 368.63811578 -62.73461914 367.23730469 C-69.08855292 361.60457024 -75.14618661 355.72347056 -81.13549805 349.7097168 C-82.70444235 348.13538345 -84.27870433 346.56650911 -85.85351562 344.99804688 C-91.2830928 339.57231373 -96.54976524 334.06452124 -101.51171875 328.203125 C-102.35734375 327.23890625 -103.20296875 326.2746875 -104.07421875 325.28125 C-145.84449052 276.81702442 -174.55515416 220.30990227 -170.30957031 155.09814453 C-168.43511258 135.51536632 -162.16651893 116.76873567 -153.51171875 99.203125 C-153.18945312 98.54086914 -152.8671875 97.87861328 -152.53515625 97.19628906 C-132.52512533 56.50515912 -94.92048271 25.39172686 -52.51171875 10.203125 C-40.40416001 6.16351711 -28.11546515 3.18942971 -15.51171875 1.203125 C-14.46121338 1.03111572 -13.41070801 0.85910645 -12.32836914 0.68188477 C-8.18801355 0.16251949 -4.16671061 0.02430843 0 0 Z " fill="#F96671" transform="translate(244.51171875,11.796875)"/>
<path d="M0 0 C1.1746582 0.3700415 1.1746582 0.3700415 2.37304688 0.74755859 C35.41943136 11.45411395 59.740194 33.49423996 75.6550293 64.08544922 C78.74419218 70.21897746 81.18172038 76.36862726 83 83 C83.37125 84.155 83.7425 85.31 84.125 86.5 C91.80276312 117.21105247 86.3689225 149.24023684 71 176.625 C67.46232644 182.51422654 63.5022767 187.82023786 59 193 C58.31292969 193.81984375 57.62585938 194.6396875 56.91796875 195.484375 C44.78550017 209.56241062 29.74490545 219.22394117 13 227 C11.94425781 227.49628906 10.88851562 227.99257813 9.80078125 228.50390625 C5.20751109 230.44996268 0.41097583 231.50850663 -4.4375 232.625 C-5.34048828 232.8415625 -6.24347656 233.058125 -7.17382812 233.28125 C-24.71410004 237.39641879 -42.49776612 237.17228288 -60 233 C-60.7022168 232.83371094 -61.40443359 232.66742188 -62.12792969 232.49609375 C-93.29121574 224.83647861 -120.20655505 204.24607396 -136.86572266 176.95703125 C-140.02524561 171.50573206 -142.55583959 165.79914734 -145 160 C-145.38800781 159.13761719 -145.77601563 158.27523437 -146.17578125 157.38671875 C-155.41903871 135.01018428 -154.92692386 109.25610176 -150 86 C-149.2804395 82.26793757 -149.2804395 82.26793757 -149 79 C-149.9793879 77.97980427 -150.97895449 76.97850195 -152 76 C-151.68978792 70.21545713 -149.08214533 65.32340028 -146.625 60.1875 C-146.22539062 59.31673828 -145.82578125 58.44597656 -145.4140625 57.54882812 C-144.82625 56.30842773 -144.82625 56.30842773 -144.2265625 55.04296875 C-143.87158691 54.29039795 -143.51661133 53.53782715 -143.15087891 52.76245117 C-142 51 -142 51 -139 50 C-138.030625 49.92136719 -137.06125 49.84273437 -136.0625 49.76171875 C-132.0165644 48.75539548 -131.25946774 47.26092153 -129 43.8125 C-111.90525442 19.29351648 -84.27707029 2.44347538 -55 -3 C-36.78810336 -5.46462651 -17.61079093 -5.59154501 0 0 Z " fill="#C9E5ED" transform="translate(289,75)"/>
<path d="M0 0 C32.78409218 -0.51696335 65.90458983 0.62929625 98.41113281 5.06640625 C99.45350098 5.20804199 100.49586914 5.34967773 101.56982422 5.49560547 C112.49741858 7.03243109 123.21091675 9.04945905 133.84863281 12.00390625 C134.68257568 12.23247314 135.51651855 12.46104004 136.37573242 12.6965332 C144.43116389 15.07221944 151.9134409 18.5378971 157.41113281 25.06640625 C159.00258367 29.84075882 159.13449571 33.52532877 156.97363281 38.12890625 C137.49361639 60.45965678 90.62653294 59.40043818 63.42503357 61.39250183 C48.29706369 62.39207033 33.16155762 62.40476892 18.00610352 62.38208008 C14.66709856 62.37746808 11.32845966 62.38432163 7.98950195 62.40258789 C-105.31557319 63.01580708 -105.31557319 63.01580708 -130.28417969 40.59375 C-132.77304656 37.68013639 -133.55352228 35.45520027 -133.90136719 31.62890625 C-133.44702093 26.44935888 -131.72662137 24.23333361 -128.15136719 20.56640625 C-97.83116451 -2.92624474 -36.64403215 0.67803923 0 0 Z " fill="#FDF4F1" transform="translate(243.5888671875,437.93359375)"/>
<path d="M0 0 C0.80196304 -0.00701431 1.60392609 -0.01402863 2.43019104 -0.02125549 C5.01211184 -0.03870902 7.59380358 -0.04510996 10.17578125 -0.046875 C11.05576782 -0.04754974 11.93575439 -0.04822449 12.84240723 -0.04891968 C25.61576014 -0.03332251 37.99656904 0.28876795 50.48828125 3.203125 C51.27460938 3.38004883 52.0609375 3.55697266 52.87109375 3.73925781 C64.07551171 6.31360622 74.89125723 9.75013409 85.48828125 14.203125 C86.16036621 14.48494629 86.83245117 14.76676758 87.52490234 15.05712891 C104.91257412 22.48905565 120.4874928 32.52751406 134.48828125 45.203125 C135.78958984 46.32460937 135.78958984 46.32460937 137.1171875 47.46875 C153.25665524 61.51185495 165.70583829 78.24285167 175.48828125 97.203125 C175.9675708 98.1307666 175.9675708 98.1307666 176.45654297 99.07714844 C196.71076627 138.9079838 198.90495815 185.33411493 185.36376953 227.58886719 C168.52665804 277.86543994 134.6574911 319.04647456 97.73828125 356.078125 C96.99461807 356.82580643 96.99461807 356.82580643 96.2359314 357.58859253 C90.50016091 363.34785326 84.68056439 368.93429613 78.48828125 374.203125 C77.30833817 375.23650537 76.12993082 376.27164211 74.953125 377.30859375 C61.9554857 388.68860299 48.51005399 399.42360037 34.58691406 409.65039062 C32.37050007 411.29026883 30.17627506 412.95765673 27.98046875 414.625 C26.48396035 415.73557183 24.98658689 416.84497907 23.48828125 417.953125 C22.80652832 418.4790625 22.12477539 419.005 21.42236328 419.546875 C17.55551523 422.36119141 14.40828154 424.11467472 9.53320312 423.75439453 C5.31822523 422.61812184 2.12264403 419.92434877 -1.26171875 417.265625 C-2.05030273 416.67023926 -2.83888672 416.07485352 -3.65136719 415.46142578 C-5.22930896 414.26782139 -6.80141617 413.06645905 -8.3671875 411.85693359 C-10.18216816 410.45726613 -12.00969467 409.08122384 -13.85546875 407.72265625 C-29.21223993 396.39084526 -43.89521764 384.31495299 -58.00952148 371.4699707 C-59.57661778 370.05027229 -61.15061703 368.63811578 -62.73461914 367.23730469 C-69.08855292 361.60457024 -75.14618661 355.72347056 -81.13549805 349.7097168 C-82.70444235 348.13538345 -84.27870433 346.56650911 -85.85351562 344.99804688 C-91.2830928 339.57231373 -96.54976524 334.06452124 -101.51171875 328.203125 C-102.35734375 327.23890625 -103.20296875 326.2746875 -104.07421875 325.28125 C-145.84449052 276.81702442 -174.55515416 220.30990227 -170.30957031 155.09814453 C-168.43511258 135.51536632 -162.16651893 116.76873567 -153.51171875 99.203125 C-153.18945312 98.54086914 -152.8671875 97.87861328 -152.53515625 97.19628906 C-132.52512533 56.50515912 -94.92048271 25.39172686 -52.51171875 10.203125 C-40.40416001 6.16351711 -28.11546515 3.18942971 -15.51171875 1.203125 C-14.46121338 1.03111572 -13.41070801 0.85910645 -12.32836914 0.68188477 C-8.18801355 0.16251949 -4.16671061 0.02430843 0 0 Z M-110.51171875 61.203125 C-111.25550781 61.89535156 -111.99929687 62.58757812 -112.765625 63.30078125 C-140.11367917 89.50735142 -157.52564809 129.07037279 -158.75 166.86328125 C-159.79634042 226.23496177 -128.98648515 279.17787238 -89.70703125 321.796875 C-88.509553 323.10941344 -87.31962086 324.42970469 -86.1706543 325.78491211 C-80.73710251 332.1656971 -74.81982323 338.04628874 -68.88745117 343.95776367 C-67.07810942 345.76174585 -65.27417556 347.57101165 -63.47070312 349.38085938 C-57.65408378 355.20118469 -51.81337282 360.90304643 -45.51171875 366.203125 C-44.40501449 367.16394332 -43.29951689 368.12615353 -42.1953125 369.08984375 C-28.48954963 380.94517182 -14.32225177 392.08368045 0.390625 402.66748047 C1.75856451 403.66891663 3.10654177 404.69838651 4.4296875 405.75830078 C7.85328649 408.46704066 7.85328649 408.46704066 12.03125 409.28515625 C15.25615519 407.86496748 17.9956472 405.99126967 20.80078125 403.890625 C21.40470703 403.4476709 22.00863281 403.0047168 22.63085938 402.54833984 C23.923102 401.59767517 25.21224711 400.64278812 26.49853516 399.68408203 C28.48045665 398.2089488 30.47348049 396.74997951 32.46875 395.29296875 C40.35304724 389.49873959 47.8972253 383.42770531 55.265625 376.9921875 C58.07082299 374.5451879 60.95029013 372.20886234 63.86328125 369.890625 C75.34840902 360.51636731 85.82706268 349.96324117 96.33901978 339.52761841 C97.37979339 338.49489155 98.42204233 337.46364895 99.46591187 336.43405151 C105.53463114 330.43968666 111.2462313 324.30059398 116.55371094 317.60522461 C118.39147591 315.32332538 120.30873564 313.16298728 122.30078125 311.015625 C137.48274866 294.05992279 149.99619324 274.33302967 160.48828125 254.203125 C160.83842285 253.54086914 161.18856445 252.87861328 161.54931641 252.19628906 C181.61307075 213.79593283 187.86555411 170.07067471 174.95581055 128.42919922 C161.50534748 87.17894328 132.28108982 52.30090371 93.82763672 32.13842773 C25.95068555 -2.33995897 -55.27956526 8.30062298 -110.51171875 61.203125 Z " fill="#294268" transform="translate(244.51171875,11.796875)"/>
<path d="M0 0 C5.99215293 1.50718376 9.82487103 4.25232681 13.5 9.1875 C17.61592983 16.17527918 18.03370469 23.04918055 18 31 C18.62506817 30.99631283 19.25013634 30.99262566 19.89414597 30.98882675 C35.10046858 30.90050562 50.30671257 30.8343051 65.51322556 30.79275131 C72.86698363 30.77212227 80.22057054 30.74399541 87.57421875 30.69824219 C93.98335548 30.65838455 100.39236826 30.63256966 106.80162549 30.62364602 C110.19563213 30.61842934 113.58928416 30.60616195 116.98317719 30.57707977 C120.77122749 30.54814866 124.55853713 30.54403986 128.34667969 30.54589844 C130.03629318 30.52432678 130.03629318 30.52432678 131.76004028 30.50231934 C133.30807846 30.51056732 133.30807846 30.51056732 134.88739014 30.51898193 C135.78337292 30.51529476 136.6793557 30.51160759 137.60248947 30.50780869 C140.8061642 31.16549959 142.0252858 32.44059507 144 35 C143.85118292 40.39800152 142.07434749 45.46158675 140.41796875 50.56640625 C140.0347924 51.76208473 140.0347924 51.76208473 139.64387512 52.98191833 C139.1046365 54.65775892 138.56240558 56.33263932 138.01733398 58.0065918 C137.18993019 60.55501497 136.37871572 63.10822187 135.56835938 65.66210938 C135.04004051 67.29719133 134.51077509 68.93196781 133.98046875 70.56640625 C133.62241402 71.70101036 133.62241402 71.70101036 133.25712585 72.85853577 C131.26987614 78.88377749 128.63237758 83.95689613 123.75 88.1875 C123.22921875 88.65542969 122.7084375 89.12335938 122.171875 89.60546875 C116.18339722 93.45058848 110.50382474 94.44199492 103.56445312 94.34057617 C102.76349213 94.34101425 101.96253113 94.34145233 101.13729858 94.34190369 C98.51835828 94.33983172 95.90007696 94.31657701 93.28125 94.29296875 C91.45422719 94.28736711 89.62719984 94.2830997 87.8001709 94.28010559 C83.01285155 94.2687015 78.22580922 94.23927287 73.43859863 94.20599365 C68.54504136 94.17519675 63.65143894 94.16157976 58.7578125 94.14648438 C49.1717539 94.11439861 39.58590007 94.06325638 30 94 C30.23059099 95.41995501 30.48544138 96.83597978 30.75 98.25 C30.88921875 99.03890625 31.0284375 99.8278125 31.171875 100.640625 C32.27471017 103.78266482 33.26443329 105.06562193 36 107 C38.94862006 107.3823304 41.52270687 107.52397404 44.46875 107.48242188 C45.74745972 107.48829063 45.74745972 107.48829063 47.05200195 107.49427795 C48.90062725 107.50025071 50.74929957 107.49708695 52.59790039 107.4858551 C55.52327702 107.4686128 58.44766377 107.47608976 61.37304688 107.4901123 C67.58209843 107.5154733 73.79091766 107.50993817 80 107.5 C87.19492295 107.48848391 94.38936621 107.48957523 101.58422852 107.52406311 C104.46723128 107.53116923 107.34947869 107.51446462 110.23242188 107.49694824 C111.99870208 107.50265495 113.76497917 107.50947166 115.53125 107.51757812 C116.73454956 107.50060631 116.73454956 107.50060631 117.9621582 107.48329163 C121.52805442 107.5224701 123.6072652 107.71553601 126.53320312 109.83483887 C128 112 128 112 127.9375 115.125 C127 118 127 118 124 120 C121.67612053 120.39387788 119.34206251 120.73486085 117 121 C117.40992188 121.44730469 117.81984375 121.89460938 118.2421875 122.35546875 C124.95878963 129.89156061 124.95878963 129.89156061 125.02734375 135.0625 C124.65777664 140.67233915 123.36347663 144.48586031 120 149 C114.67245431 152.99262536 109.60798011 154.44799865 103 154 C97.11627496 151.95870764 92.77467129 147.54934258 90 142 C89.48771985 136.39011251 89.23743967 131.55235496 91.75 126.4375 C94 124 94 124 98 121 C83.48 121 68.96 121 54 121 C55.98 122.65 57.96 124.3 60 126 C63.07411586 130.48271649 62.48529111 135.7831206 62 141 C60.0763151 146.46731497 56.75520514 150.43623492 51.6875 153.3125 C45.23962294 154.96195692 40.49509614 154.40534784 34.7578125 151.19921875 C30.23474041 148.11347846 28.25323869 144.22182787 27 139 C26.27507983 133.40775868 27.55747253 130.36192511 30.515625 125.796875 C32.14883132 123.81983577 33.89765968 122.45546637 36 121 C35.26394531 120.64808594 34.52789062 120.29617187 33.76953125 119.93359375 C27.62244739 116.82351037 22.96893011 114.34541661 20 108 C17.30802357 99.38950617 15.98628856 90.4556583 14.60900879 81.56271362 C13.98226942 77.52529525 13.33420183 73.49129221 12.6875 69.45703125 C12.55281311 68.61519791 12.41812622 67.77336456 12.27935791 66.90602112 C10.81656184 57.79659108 9.28336628 48.69961215 7.71081543 39.60852051 C7.40477183 37.83460262 7.10112323 36.06026978 6.79992676 34.28552246 C6.37806576 31.80250557 5.94799182 29.32104989 5.515625 26.83984375 C5.391875 26.10295822 5.268125 25.36607269 5.140625 24.6068573 C4.15940755 18.42902449 4.15940755 18.42902449 0.375 13.7734375 C-3.67666004 12.45398242 -7.92833475 12.64001207 -12.15625 12.609375 C-15.64080251 12.49235645 -17.6628172 12.24828437 -20.50390625 10.15625 C-22 8 -22 8 -21.9375 4.875 C-19.39305936 -2.92795131 -6.79164611 -0.71974604 0 0 Z " fill="#294369" transform="translate(195,117)"/>
<path d="M0 0 C27.39967192 20.95999398 47.24221747 51.93089981 51.9375 86.4375 C55.61979494 115.97760929 50.83621243 145.43832859 35.8125 171.3125 C35.46993164 171.90820801 35.12736328 172.50391602 34.77441406 173.11767578 C18.81254643 200.4224363 -8.15904054 223.38181934 -38.80859375 232.375 C-42.2269305 233.21471425 -45.64650346 234.04059254 -49.07763672 234.82617188 C-51.03643724 235.2776797 -52.98924639 235.75496842 -54.94140625 236.234375 C-88.41416625 243.63398409 -122.37685254 234.85985226 -151.1875 217.3125 C-155.80641606 214.30026225 -160.01412874 210.92008536 -164.1875 207.3125 C-164.69039551 206.89033203 -165.19329102 206.46816406 -165.71142578 206.03320312 C-190.01895183 185.56532744 -207.46990928 153.81267027 -210.875 122.0625 C-211.01037116 119.81416165 -211.10810752 117.56351034 -211.1875 115.3125 C-211.22004883 114.47138672 -211.25259766 113.63027344 -211.28613281 112.76367188 C-212.46890876 77.99722743 -212.46890876 77.99722743 -204.1875 66.3125 C-203.6925 65.8175 -203.6925 65.8175 -203.1875 65.3125 C-199.75 65.5625 -199.75 65.5625 -196.1875 66.3125 C-193.56472613 70.24666081 -194.31389909 71.74616442 -195.1875 76.3125 C-195.43628906 77.48683594 -195.68507812 78.66117187 -195.94140625 79.87109375 C-202.50813875 111.37237574 -196.69769874 142.80088537 -180.1796875 170.27734375 C-177.14233409 174.904841 -173.8209495 179.14175668 -170.1875 183.3125 C-169.43855469 184.20582031 -168.68960938 185.09914063 -167.91796875 186.01953125 C-148.39312677 208.57245857 -118.82572993 222.89731225 -89.1875 225.3125 C-56.65480756 227.10745534 -26.15784541 217.65153701 -1.1875 196.3125 C-0.37796875 195.64863281 0.4315625 194.98476563 1.265625 194.30078125 C23.66297722 175.24894548 37.02419067 146.30431188 39.8125 117.3125 C41.77587966 84.16603158 33.00943146 52.82102165 10.77368164 27.60449219 C-9.06759777 5.73025223 -37.27102255 -11.11313612 -67.38061523 -12.87426758 C-70.77707573 -12.95469106 -74.16522878 -12.96061069 -77.5625 -12.9375 C-78.69171875 -12.94523437 -79.8209375 -12.95296875 -80.984375 -12.9609375 C-113.1000005 -12.88744637 -141.6014228 -0.08216976 -164.1875 22.3125 C-164.87328125 22.94929688 -165.5590625 23.58609375 -166.265625 24.2421875 C-170.64166712 28.3619749 -173.8447555 33.00684574 -177.09765625 38.0546875 C-179.1875 40.3125 -179.1875 40.3125 -182.28515625 41.234375 C-185.1875 41.3125 -185.1875 41.3125 -187.5625 39.6875 C-189.53864482 36.79928834 -189.63763433 35.75528567 -189.1875 32.3125 C-180.82600404 18.18649036 -166.89077638 5.09616822 -153.1875 -3.6875 C-151.54974609 -4.77417969 -151.54974609 -4.77417969 -149.87890625 -5.8828125 C-103.98816725 -35.46802779 -43.57896707 -32.15852668 0 0 Z " fill="#2C4369" transform="translate(335.1875,84.6875)"/>
<path d="M0 0 C-3.1284023 2.08560154 -5.9811551 3.18425799 -9.5 4.5 C-24.51264731 10.35298516 -38.26741728 18.15538404 -51 28 C-51.90492188 28.68191406 -52.80984375 29.36382812 -53.7421875 30.06640625 C-63.4714372 37.67369793 -72.99358992 46.60657136 -80.6640625 56.30078125 C-82.99106464 58.98967503 -84.98798155 60.20036633 -88 62 C-103.75630757 79.4258501 -114.13306443 101.46133256 -120 124 C-120.30808594 125.11632812 -120.61617187 126.23265625 -120.93359375 127.3828125 C-124.3652565 140.22281379 -124.12487069 152.80212813 -124 166 C-121.69 166.33 -119.38 166.66 -117 167 C-116.85304688 168.65322266 -116.85304688 168.65322266 -116.703125 170.33984375 C-114.51878885 193.19781537 -108.4151731 215.55023513 -97.97753906 236.07177734 C-96.92998009 238.1381162 -95.91545646 240.21925785 -94.8984375 242.30078125 C-75.86059603 280.51119479 -45.7141898 317.20898946 -13.28515625 344.99609375 C-10.93547274 347.05658545 -8.65010363 349.1741656 -6.36669922 351.30737305 C-0.11371016 357.14489017 6.30530946 362.66904271 13 368 C14.23475776 368.99171112 15.46910848 369.98392919 16.703125 370.9765625 C23.42373243 376.37589565 30.16802735 381.74178799 37 387 C35.63792042 391.08623873 33.73386836 391.9894555 30 394 C25.3757495 393.75744202 22.27409643 391.37321966 18.6875 388.6875 C18.08429932 388.245271 17.48109863 387.80304199 16.85961914 387.34741211 C15.56805568 386.39755311 14.27964635 385.44339297 12.99414062 384.48535156 C10.99802292 382.99852736 8.99203894 381.52587092 6.984375 380.0546875 C-1.06351884 374.12450694 -8.82283841 367.94868321 -16.37597656 361.40185547 C-18.06229302 359.94622873 -19.76006328 358.50498726 -21.4609375 357.06640625 C-34.14362353 346.32328046 -46.11128182 334.98102999 -57.875 323.25 C-58.69443588 322.43458237 -58.69443588 322.43458237 -59.53042603 321.60269165 C-65.57121643 315.58436235 -71.51205436 309.53483942 -77 303 C-77.53898926 302.36771484 -78.07797852 301.73542969 -78.63330078 301.08398438 C-90.94707576 286.57326635 -102.43626795 271.47965398 -112 255 C-112.53270508 254.09266113 -112.53270508 254.09266113 -113.07617188 253.16699219 C-136.72209007 212.78041961 -149.79194456 167.32522829 -137.7109375 120.8828125 C-131.9068167 99.89240376 -122.46052826 80.17197489 -109 63 C-107.98873047 61.68322266 -107.98873047 61.68322266 -106.95703125 60.33984375 C-83.54099481 30.6965918 -39.60149582 -1.09275651 0 0 Z " fill="#FCA7AF" transform="translate(228,27)"/>
<path d="M0 0 C32.78409218 -0.51696335 65.90458983 0.62929625 98.41113281 5.06640625 C99.45350098 5.20804199 100.49586914 5.34967773 101.56982422 5.49560547 C112.49741858 7.03243109 123.21091675 9.04945905 133.84863281 12.00390625 C134.68257568 12.23247314 135.51651855 12.46104004 136.37573242 12.6965332 C144.43116389 15.07221944 151.9134409 18.5378971 157.41113281 25.06640625 C159.00258367 29.84075882 159.13449571 33.52532877 156.97363281 38.12890625 C137.49361639 60.45965678 90.62653294 59.40043818 63.42503357 61.39250183 C48.29706369 62.39207033 33.16155762 62.40476892 18.00610352 62.38208008 C14.66709856 62.37746808 11.32845966 62.38432163 7.98950195 62.40258789 C-105.31557319 63.01580708 -105.31557319 63.01580708 -130.28417969 40.59375 C-132.77304656 37.68013639 -133.55352228 35.45520027 -133.90136719 31.62890625 C-133.44702093 26.44935888 -131.72662137 24.23333361 -128.15136719 20.56640625 C-97.83116451 -2.92624474 -36.64403215 0.67803923 0 0 Z M-67.15136719 16.94140625 C-67.80967529 17.02666565 -68.4679834 17.11192505 -69.14624023 17.19976807 C-94.57076832 20.45514026 -94.57076832 20.45514026 -118.58886719 29.06640625 C-119.24886719 30.05640625 -119.90886719 31.04640625 -120.58886719 32.06640625 C-99.37966477 44.61087353 -72.61855582 45.9416285 -48.58886719 48.06640625 C-47.65066635 48.15182678 -46.71246552 48.23724731 -45.74583435 48.32525635 C-28.11667442 49.90105746 -10.57699945 50.38470441 7.1081543 50.32714844 C10.63802747 50.31576601 14.1675983 50.32253083 17.69746113 50.33404064 C35.03199188 50.38171207 52.19427508 49.78637338 69.47714233 48.31497192 C73.15614687 48.00328917 76.8372075 47.72245888 80.51885986 47.44407654 C102.0595841 45.68579115 126.55613698 43.35553667 145.41113281 32.06640625 C142.11087086 28.11970123 138.43399762 26.61146489 133.66113281 25.06640625 C132.88688965 24.81149414 132.11264648 24.55658203 131.31494141 24.29394531 C121.83914669 21.34658104 112.08365264 19.92271563 102.28393555 18.50341797 C99.48410825 18.0775073 96.70812606 17.57006035 93.92285156 17.05859375 C85.20497787 15.6056148 76.40927039 15.03224335 67.59863281 14.44140625 C66.14772751 14.3433519 66.14772751 14.3433519 64.66751099 14.24331665 C46.74455604 13.07457378 28.83450106 12.76389844 10.8800087 12.75543976 C8.88715537 12.75393533 6.89430583 12.74879911 4.90145874 12.74359131 C-19.20180698 12.70748212 -43.2400155 13.79096732 -67.15136719 16.94140625 Z " fill="#294369" transform="translate(243.5888671875,437.93359375)"/>
<path d="M0 0 C-2.00423051 2.00423051 -3.30404371 2.70097227 -5.859375 3.8125 C-24.50151151 12.1360183 -39.95437217 22.99450536 -52.6875 39.0625 C-55.756582 42.92317519 -58.19261452 45.7198688 -63.1875 46.8125 C-64.445625 46.874375 -65.70375 46.93625 -67 47 C-67.77426109 49.80764728 -67.77426109 49.80764728 -68 53 C-66.58643706 55.19086054 -66.58643706 55.19086054 -65 57 C-65.53109375 58.00417969 -66.0621875 59.00835937 -66.609375 60.04296875 C-71.01378192 68.51121956 -74.62558671 76.70981986 -77 86 C-77.28617188 87.08023438 -77.57234375 88.16046875 -77.8671875 89.2734375 C-85.82488251 121.18000511 -80.42756099 154.70311588 -64 183 C-58.88245138 191.41394633 -52.80718092 198.89478139 -46 206 C-44.97326172 207.12148438 -44.97326172 207.12148438 -43.92578125 208.265625 C-32.31989863 220.53653972 -16.80226715 230.08570118 -1 236 C-1 236.33 -1 236.66 -1 237 C-7.71129852 237.26872066 -13.16869672 236.50122002 -19.5625 234.5 C-20.42875 234.23300293 -21.295 233.96600586 -22.1875 233.69091797 C-51.49659654 224.27090548 -77.44596779 203.20861303 -92.05224609 176.04296875 C-94.22340723 171.77127075 -96.1393388 167.41470554 -98 163 C-98.38800781 162.13761719 -98.77601563 161.27523437 -99.17578125 160.38671875 C-108.41903871 138.01018428 -107.92692386 112.25610176 -103 89 C-102.2804395 85.26793757 -102.2804395 85.26793757 -102 82 C-102.9793879 80.97980427 -103.97895449 79.97850195 -105 79 C-104.68978792 73.21545713 -102.08214533 68.32340028 -99.625 63.1875 C-99.22539062 62.31673828 -98.82578125 61.44597656 -98.4140625 60.54882812 C-97.82625 59.30842773 -97.82625 59.30842773 -97.2265625 58.04296875 C-96.87158691 57.29039795 -96.51661133 56.53782715 -96.15087891 55.76245117 C-95 54 -95 54 -92 53 C-91.030625 52.92136719 -90.06125 52.84273437 -89.0625 52.76171875 C-85.0165644 51.75539548 -84.25946774 50.26092153 -82 46.8125 C-65.01269545 22.44761908 -30.89766655 -1.78255769 0 0 Z " fill="#AECAD2" transform="translate(242,72)"/>
<path d="M0 0 C35.64 0 71.28 0 108 0 C101.39792388 29.70934256 101.39792388 29.70934256 94.4375 36.5 C90.00934827 39.22501645 86.07430611 39.13717376 81.0402832 39.11352539 C79.82530655 39.11374443 79.82530655 39.11374443 78.58578491 39.1139679 C75.90742315 39.113271 73.22913087 39.10548903 70.55078125 39.09765625 C68.69418882 39.09579128 66.8375959 39.09436775 64.98100281 39.09336853 C60.09344119 39.0895496 55.20590926 39.07972461 50.31835938 39.06866455 C45.33138429 39.05843704 40.34440442 39.05386803 35.35742188 39.04882812 C25.57160153 39.03810181 15.78580324 39.02103284 6 39 C5.14239502 33.9284982 4.28797995 28.85647325 3.43652344 23.78393555 C3.14638596 22.05820174 2.85537559 20.33261446 2.56347656 18.60717773 C2.14418937 16.1278213 1.72803865 13.64795583 1.3125 11.16796875 C1.18125732 10.39599655 1.05001465 9.62402435 0.91479492 8.82865906 C0.4177877 5.84755325 0 3.02824037 0 0 Z " fill="#5EA7EC" transform="translate(216,160)"/>
<path d="M0 0 C1.8125 1.125 1.8125 1.125 3 3 C3.48344131 6.81918636 3.3581215 8.48636854 1.12890625 11.68359375 C0.28199219 12.59238281 -0.56492188 13.50117187 -1.4375 14.4375 C-19.00825228 34.25858553 -31.25541309 63.32970542 -32.19140625 89.80859375 C-32.22387451 90.66380615 -32.25634277 91.51901855 -32.28979492 92.40014648 C-32.3455349 94.10093455 -32.3816504 95.80250762 -32.39575195 97.50415039 C-32.50064563 101.31921609 -32.56859502 103.38690177 -34.80859375 106.5703125 C-37 108 -37 108 -40.6875 107.875 C-41.780625 107.58625 -42.87375 107.2975 -44 107 C-51.02686179 92.94627643 -42.31836562 67.45219608 -37.84863281 53.50683594 C-31.92566299 36.01056029 -22.64341973 20.25765905 -11 6 C-10.28457031 5.07574219 -9.56914062 4.15148437 -8.83203125 3.19921875 C-6.09344276 -0.08825528 -4.18723451 -0.40851068 0 0 Z " fill="#2C4368" transform="translate(148,86)"/>
<path d="M0 0 C-0.76183594 0.23074219 -1.52367187 0.46148437 -2.30859375 0.69921875 C-14.12143698 4.13338204 -14.12143698 4.13338204 -23 12 C-22.82447194 14.72068501 -22.10149463 15.8801601 -20.3359375 17.96484375 C-14.21579488 23.29694125 -4.82638284 25.31195664 3 27 C3 27.33 3 27.66 3 28 C-3.78349953 28.2196097 -10.1848415 27.40077532 -16.875 26.3125 C-17.97328125 26.13388428 -19.0715625 25.95526855 -20.203125 25.77124023 C-46.30911267 21.34607755 -46.30911267 21.34607755 -57 14 C-53.67952817 10.00855199 -49.93985932 8.54232932 -45.125 7 C-44.34777588 6.74581299 -43.57055176 6.49162598 -42.76977539 6.22973633 C-11.65007201 -3.47887493 -11.65007201 -3.47887493 0 0 Z " fill="#E4D3D0" transform="translate(180,456)"/>
<path d="M0 0 C2 1.0625 2 1.0625 3 3 C3.125 6.375 3.125 6.375 2 10 C-0.81241037 13.01544534 -3.69482188 14.76269489 -7.75 15.5 C-10 15 -10 15 -11.8125 13.875 C-13.63946378 10.99032034 -13.59215566 9.35554876 -13 6 C-9.68101464 0.80967182 -6.24846716 -1.06106046 0 0 Z " fill="#304368" transform="translate(169,67)"/>
<path d="M0 0 C3.0625 0.3125 3.0625 0.3125 5 1.4375 C6.0625 3.3125 6.0625 3.3125 5.9375 6.375 C5.0625 9.3125 5.0625 9.3125 2.0625 11.3125 C-1.25990324 10.9883631 -2.54526303 10.70473697 -4.9375 8.3125 C-5.1875 5.3125 -5.1875 5.3125 -4.9375 2.3125 C-2.9375 0.3125 -2.9375 0.3125 0 0 Z " fill="#697184" transform="translate(301.9375,247.6875)"/>
<path d="M0 0 C3 0.25 3 0.25 5 2.25 C5.33302312 5.3804173 5.47671956 7.42898298 3.875 10.1875 C2 11.25 2 11.25 -1.0625 11.125 C-4 10.25 -4 10.25 -6 7.25 C-5.5601518 2.74155593 -4.87125629 0.40593802 0 0 Z " fill="#697184" transform="translate(240,247.75)"/>
</svg>
