<?xml version="1.0" standalone="no"?>
<!DOCTYPE svg PUBLIC "-//W3C//DTD SVG 20010904//EN"
 "http://www.w3.org/TR/2001/REC-SVG-20010904/DTD/svg10.dtd">
<svg version="1.0" xmlns="http://www.w3.org/2000/svg"
 width="512.000000pt" height="512.000000pt" viewBox="0 0 512.000000 512.000000"
 preserveAspectRatio="xMidYMid meet">

<g transform="translate(0.000000,512.000000) scale(0.100000,-0.100000)"
fill="#000000" stroke="none">
<path d="M2376 4989 c-842 -89 -1502 -702 -1617 -1504 -18 -122 -15 -363 6
-480 98 -563 476 -1146 1108 -1711 244 -219 645 -524 687 -524 20 0 248 160
401 281 334 265 645 573 867 857 515 661 666 1289 455 1896 -226 653 -832
1117 -1548 1186 -116 11 -247 11 -359 -1z m444 -135 c260 -35 503 -130 735
-287 128 -87 343 -303 428 -432 114 -173 195 -362 238 -558 32 -144 37 -407
11 -563 -90 -528 -486 -1122 -1112 -1670 -181 -159 -536 -434 -559 -434 -8 0
-61 35 -120 77 -444 321 -859 722 -1127 1089 -471 645 -574 1267 -304 1841
159 338 425 607 771 780 314 157 661 209 1039 157z"/>
<path d="M2455 4534 c-381 -41 -711 -218 -931 -499 -73 -94 -82 -133 -39 -161
38 -25 66 -11 117 59 151 206 398 371 663 443 93 26 113 28 295 28 179 0 203
-2 293 -27 371 -100 680 -369 818 -713 142 -355 111 -747 -85 -1069 -276 -455
-810 -676 -1320 -545 -552 141 -933 656 -902 1220 3 63 13 147 21 185 9 39 18
82 21 96 11 52 -62 91 -100 54 -19 -19 -32 -63 -52 -180 -24 -136 -15 -386 20
-523 170 -677 827 -1109 1508 -993 521 90 933 475 1066 998 25 99 27 124 27
303 0 213 -10 276 -67 440 -86 244 -257 474 -464 627 -156 115 -367 206 -548
238 -88 15 -277 25 -341 19z"/>
<path d="M1605 4429 c-49 -43 -59 -64 -44 -91 25 -48 69 -51 122 -7 45 37 52
88 15 113 -33 23 -53 20 -93 -15z"/>
<path d="M1389 4218 c-22 -24 -67 -83 -100 -133 -157 -232 -243 -483 -256
-745 -7 -140 1 -160 56 -160 46 0 58 25 65 136 18 294 126 575 306 794 56 69
63 85 48 118 -10 20 -22 28 -46 30 -28 3 -39 -3 -73 -40z"/>
<path d="M1751 3931 c-26 -26 -27 -55 -1 -81 17 -17 33 -20 104 -20 74 0 86
-3 109 -24 14 -13 29 -35 31 -48 3 -12 38 -212 77 -443 66 -393 78 -444 111
-486 23 -29 90 -69 114 -69 32 0 30 -12 -6 -38 -40 -30 -62 -76 -62 -132 0
-150 168 -230 282 -134 42 36 60 75 60 131 0 59 -26 110 -70 141 l-33 22 243
0 243 0 -33 -22 c-44 -31 -70 -82 -70 -141 0 -183 241 -238 327 -74 37 71 11
169 -57 214 l-33 23 52 0 c56 0 91 23 91 60 0 11 -9 29 -20 40 -19 19 -33 20
-455 20 -377 0 -439 2 -459 15 -24 16 -39 45 -50 97 l-6 27 427 3 c418 3 429
4 469 25 86 46 106 82 184 324 l72 222 -20 26 -19 26 -610 3 -609 2 -12 78
c-16 105 -46 159 -107 197 -44 27 -58 30 -146 33 -88 3 -99 2 -118 -17z m1489
-417 c0 -3 -23 -77 -50 -163 -52 -163 -67 -189 -123 -210 -18 -7 -171 -11
-435 -11 l-407 0 -29 168 c-15 92 -30 179 -33 195 l-5 27 541 0 c297 0 541 -3
541 -6z"/>
<path d="M2135 720 c-429 -27 -768 -86 -916 -161 -106 -53 -139 -132 -85 -203
78 -102 377 -174 911 -218 197 -16 826 -16 1030 0 526 42 841 118 914 221 30
42 28 101 -5 141 -82 97 -379 170 -859 210 -170 15 -812 21 -990 10z m1075
-134 c303 -32 525 -77 628 -128 26 -13 47 -27 47 -33 0 -35 -241 -102 -480
-134 -242 -33 -371 -42 -710 -48 -640 -11 -1215 51 -1418 153 l-51 26 23 19
c74 60 453 132 831 159 201 14 949 4 1130 -14z"/>
</g>
</svg>
